<?xml version="1.0" encoding="utf-8"?>
<!-- Generator: Adobe Illustrator 16.0.3, SVG Export Plug-In . SVG Version: 6.00 Build 0)  -->
<!DOCTYPE svg PUBLIC "-//W3C//DTD SVG 1.0//EN" "http://www.w3.org/TR/2001/REC-SVG-20010904/DTD/svg10.dtd">
<svg version="1.0" id="Capa_1" xmlns="http://www.w3.org/2000/svg" xmlns:xlink="http://www.w3.org/1999/xlink" x="0px" y="0px"
	 width="283.46px" height="141.73px" viewBox="0 0 283.46 141.73" enable-background="new 0 0 283.46 141.73" xml:space="preserve">
<path opacity="0.2" enable-background="new    " d="M225.414,39.943H15.395c-5.167,0-10.237,0.165-15.181,0.479
	c0.17,0.504,0.266,1.067,0.266,1.692v65.775c4.86-0.271,9.84-0.414,14.915-0.414h210.019l-38.662-34.939L225.414,39.943z"/>
<linearGradient id="SVGID_1_" gradientUnits="userSpaceOnUse" x1="-5795.519" y1="1007.5076" x2="-5660.0752" y2="1007.5076" gradientTransform="matrix(1 0 0 1 5672.6992 -940.4199)">
	<stop  offset="0" style="stop-color:#101546"/>
	<stop  offset="0.426" style="stop-color:#506A73"/>
	<stop  offset="1" style="stop-color:#42ABCE"/>
	<stop  offset="1" style="stop-color:#BF2187"/>
</linearGradient>
<path fill="url(#SVGID_1_)" d="M225.414,33.093H15.395c-5.355,0-10.605,0.179-15.72,0.516C-0.292,33.85-0.27,34.1-0.27,34.365
	v66.719c5.098-0.3,10.329-0.458,15.665-0.458h210.019l-38.662-34.938L225.414,33.093z"/>
</svg>
