<?xml version="1.0" standalone="yes"?>
<svg xmlns="http://www.w3.org/2000/svg" width="293" height="120">
<path style="fill:#f7f6f5; stroke:none;" d="M0 0L0 120L293 120L293 0L0 0z"/>
<path style="fill:#de3f15; stroke:none;" d="M98 21L98 25L101 25L101 31L94 32C94.1445 28.6341 94.6615 25.3358 95.1304 22C95.4594 19.6599 95.8698 17.3327 96.2461 15C96.5926 12.8525 96.4754 1.10108 92.0085 7.33719C88.2692 12.5574 89.6038 20.3515 85.3627 25.9799C83.9987 27.79 81.749 30.4386 79.1512 29.6543C76.1626 28.752 76.6609 25.2947 77.162 23C78.1925 18.2812 81.4105 9.13852 75.8519 6.04321C69.3307 2.41193 63.4178 10.4614 63 16L72 10C73.49 16.8524 68.8345 23.4735 70.5872 29.9846C73.3954 40.4169 84.8611 34.67 88 28C88.83 36.7677 77.6669 36.4407 74.179 43.0432C70.3631 50.2665 77.2115 55.5086 83.9961 52.8511C91.1656 50.0429 90.055 43.5825 93.9846 38.4336C95.7827 36.0775 99.3591 35.8451 102 35C105.344 41.2372 112.644 42.9348 115 35C107.489 35.7075 106.063 31.9307 106 25C110.238 24.9878 114.406 25.5328 116 21L111 21C113.119 17.6453 115.799 14.2009 115.612 10.0046C115.437 6.08695 112.304 2.7745 108.615 5.60802C103.094 9.84879 104.659 18.8967 98 21M12 16C15.4761 14.4197 18.2942 12.0273 22 11C21.826 15.0532 21.084 19.0023 20.4136 23C20.0234 25.3265 19.5737 27.6583 19.2863 30C19.0434 31.9786 19.5133 44.9548 23.6867 38.6628C25.1337 36.4814 24.8862 33.4742 25.321 31C26.6647 23.3541 29.213 12.3681 38 11C37.9973 15.0987 37.7694 18.9657 37 23C36.5558 25.3292 36.1966 27.6521 35.8696 30C35.5265 32.4632 34.662 35.3772 35.3326 37.8472C36.0122 40.3507 38.4629 40.7966 39.9915 38.6628C46.2583 29.9151 40.3054 14.8785 54 11C53.9382 18.4611 49.052 28.9762 51.8943 35.9452C55.6904 45.2529 66.083 38.8101 68 32C65.652 32.6296 62.618 34.9394 60.2284 34.8125C57.4425 34.6645 57.1771 31.0743 57.3441 28.9992C57.8357 22.8935 61.2721 16.2083 59.6813 10.0193C57.3845 1.08318 47.7724 6.93357 45 12C43.6218 9.85706 42.2898 7.24598 39.8943 6.06636C34.2868 3.30509 29.5475 9.46359 28 14C27.1953 11.4905 26.9552 7.76646 24.5664 6.18364C18.2294 1.98492 12.5749 10.8411 12 16z"/>
<path style="fill:#f7f6f5; stroke:none;" d="M107 19C110.577 16.6549 111.576 13.1363 112 9C107.994 11.2016 107.562 14.6765 107 19z"/>
<path style="fill:#de3f15; stroke:none;" d="M121.318 13.0818C117.916 15.107 121.541 19.1448 124.382 16.9576C127.005 14.938 123.981 11.4968 121.318 13.0818M120.258 21.8904C117.054 22.9915 116.107 33.0563 116.149 35.9807C116.173 37.6546 116.669 40.478 119 40.0787C122.734 39.439 123.41 28.1149 123.413 25.0594C123.414 23.2326 122.501 21.1199 120.258 21.8904M130 41C132.093 36.3011 133.698 32.0288 137 28C136.806 32.5191 135.971 36.5218 137 41C143.352 39.6139 141.699 34.3114 142.169 29C142.338 27.0939 143.238 24.3188 141.933 22.6219C139.694 19.7102 135.44 23.171 134.01 25.1644C132.935 26.6631 132.518 28.2694 132 30C131.327 26.8976 131.758 24.1603 132 21C124.664 23.2254 123.336 37.3255 130 41M162 33C158.56 33.8541 155.535 35.4962 152 36C154.243 33.6962 157.878 31.9983 159.123 28.8951C160.765 24.8015 157.343 20.6562 153 21.3765C148.96 22.0466 146.023 26.182 145.36 30C143.37 41.4494 159.644 44.4005 162 33M164 41C169.777 39.1767 169.906 32.0549 174 28C174.467 32.0557 179.508 36.4876 180.553 30.0309C181.025 27.1137 178.682 20.9212 174.981 21.8904C171.659 22.7604 170.12 26.1343 169 29C168.702 26.3051 168.903 23.7169 169 21C160.963 23.418 162.425 34.3846 164 41M193 39C194.722 40.9518 196.673 40.6559 197.567 37.8511C198.513 34.8826 199.542 27.1706 198.357 24.2785C196.719 20.2808 190.989 20.9496 188.094 22.8943C180.168 28.2181 181.409 43.7749 193 39M204 41C208.628 38.4565 209.633 32.1122 213 28C213.531 31.3274 217.349 36.1933 219.843 30.8472C222.389 25.3918 217.12 19.886 212.044 23.2778C210.563 24.2673 209.263 25.7778 208 27L209 21C200.058 22.4596 201.289 34.5746 204 41M231 39C227.449 43.1054 222.322 46.4931 220.823 51.9992C219.396 57.246 224.302 60.7204 228.786 57.3958C231.717 55.223 232.768 51.3039 233.822 48C236.491 39.6301 237.927 29.7773 238 21C231.81 22.8776 231.796 30.8881 227 35L229 21C220.612 23.5236 219.608 43.4734 231 39z"/>
<path style="fill:#f7f6f5; stroke:none;" d="M150 31C153.492 29.9433 154.432 28.5824 155 25C151.536 25.9783 150.518 27.4735 150 31M188 36C193.068 34.3995 193.382 29.7804 194 25C189.159 27.3885 188.125 30.8145 188 36M87 39C84.4201 39.7669 73.9642 45.2093 79.6042 48.8634C84.7068 52.1695 86.7511 41.8288 87 39M228 46C226.312 49.0654 225.252 51.4964 225 55C228.285 52.8461 229.324 49.7882 230 46L228 46z"/>
<path style="fill:#3e5058; stroke:none;" d="M37 49.5147C32.2912 50.486 27.7718 52.3757 24 55.3796C17.8418 60.2842 12.706 67.0904 11.3287 75C7.71978 95.726 26.8212 116.528 48 112.532C80.5781 106.386 82.6259 59.5398 51 50.4498C46.3629 49.117 41.7899 48.5266 37 49.5147M105 49.5293C76.3436 56.1075 73.3319 97.0929 99.1698 109.468C105.673 112.583 114.102 112.584 120.985 110.981C140.152 106.518 149.213 82.9901 140.862 66C134.561 53.1811 118.818 46.3573 105 49.5293M179 50.5177C147.433 57.2139 145.808 103.51 177 112.363C182.214 113.843 188.778 113.194 193.985 111.981C197.642 111.13 200.96 109.325 204.014 107.16C230.951 88.0702 211.228 43.6812 179 50.5177M251 50.4676C223.183 55.7155 216.508 95.1763 241 109.272C247.945 113.269 256.222 113.848 264 112.381C268.03 111.621 271.624 110.124 274.996 107.779C302.028 88.984 283.507 44.335 251 50.4676z"/>
<path style="fill:#f7f6f5; stroke:none;" d="M184 56C184 66.9379 184.374 78.3372 181.511 89C179.788 95.4159 175.981 100.782 174 107L179 107C181.37 98.6566 189.285 99.2078 192 107L197 107C193.55 97.8829 189.188 89.8277 187.464 80C186.086 72.1498 187.653 63.63 186 56L184 56M232 75L248 75L248 92C243.795 92 235.064 90.036 234 95C245.029 93.6062 256.882 93.1998 268 94.0934C272.078 94.4211 275.885 95.812 280 96C275.344 87.9789 266.655 88.557 259.09 85.402C255.46 83.8884 254.094 80.6916 250 80L250 75L266 75C265.016 57.0211 233.851 57.0449 232 75M102 63C103.611 68.74 108.641 72.2321 112 77C105.646 79.5163 102.698 81.2992 96 79L95 80C96.7843 84.106 99.0306 87.5528 100 92C103.194 90.0471 103.669 87.6395 104 84C107.894 83.6015 111.265 82.0651 115 81L116 97C121.924 94.8496 120.346 87.9978 124 84C121.759 76.9079 128.152 75.5012 131 70C125.634 70.7889 120.2 73.7984 117 68L111 68L111 65L102 63M35 87C30.7118 87.1993 25.3249 88.1576 23.0864 92.4236C20.4785 97.3938 28.4102 97.1589 30.9807 95.821C39.9721 91.141 34.6543 78.7012 40.7384 72.6034C44.2418 69.0922 54.3834 71 59 71C57.6455 75.2715 57.6645 83.2315 54.4113 86.3974C51.2462 89.4774 43.6358 88.5128 43.6358 94.8526C43.6358 101.741 54.5574 94.5679 55.9761 91.9568C57.2544 89.6041 57.3175 86.5792 57.885 84C59.346 77.3604 60.9435 70.8265 61 64C56.026 64 44.7768 61.8845 40.7276 65.0278C36.2629 68.4937 35.432 81.7109 35 87z"/>
<path style="fill:#3e5058; stroke:none;" d="M240 73L245 73C245.117 70.27 245.499 67.6858 246 65C242.402 66.8445 240.933 69.0857 240 73M252 65C252.501 67.6858 252.883 70.27 253 73L258 73C257.182 68.9577 255.709 66.8289 252 65M41 68L41 70L59 70L59 68L41 68M250 82L250 92L256 92C255.422 87.652 253.803 84.3094 250 82M184 89L183 95L187 95C186.906 92.7951 186.644 91.1059 186 89L184 89M259 91C262.598 92.5134 267.095 92.5064 271 93C268.283 89.8902 262.896 91 259 91z"/>
</svg>
