<?xml version="1.0" encoding="utf-8"?>
<!-- Generator: Adobe Illustrator 16.0.3, SVG Export Plug-In . SVG Version: 6.00 Build 0)  -->
<!DOCTYPE svg PUBLIC "-//W3C//DTD SVG 1.1//EN" "http://www.w3.org/Graphics/SVG/1.1/DTD/svg11.dtd">
<svg version="1.1" id="Capa_1" xmlns="http://www.w3.org/2000/svg" xmlns:xlink="http://www.w3.org/1999/xlink" x="0px" y="0px"
	 width="734px" height="627px" viewBox="0 0 734 627" enable-background="new 0 0 734 627" xml:space="preserve">
<path fill="#3D4F57" d="M339,24.424c-18.846,2.475-37.456,3.59-56,8.46C229.048,47.052,179.17,76.952,142.286,119
	c-88.571,100.972-96.763,257.411-14.632,365c18.396,24.097,40.364,45.726,65.346,62.975c28.767,19.862,60.113,33.969,94,42.398
	c33.222,8.265,68.12,9.8,102,5.345c43.183-5.678,84.874-21.033,121-45.463C590.724,494.665,640.229,397.511,635.961,300
	C630.324,171.282,537.897,55.576,410,30C387.462,25.493,361.982,21.407,339,24.424z"/>
<path fill="#FFFFFF" d="M336,70.439c-14.749,2.304-29.45,7.435-42,15.576c-11.376,7.379-20.941,16.102-28.857,27.155
	c-5.917,8.261-9.733,17.214-12.799,26.83c-2.688,8.432-3.345,17.198-3.344,26c0.004,61.401,60.954,102.977,119,94.572
	c15.654-2.268,30.576-7.099,44-15.575c10.806-6.823,20.684-15.55,28.128-25.997c6.276-8.807,10.164-17.817,13.539-28
	c2.785-8.404,3.334-17.188,3.333-26C456.996,102.767,394.783,61.258,336,70.439 M344,277.424c-15.104,1.984-28.805,4.084-43,10.155
	c-10.362,4.431-20.288,10.165-29,17.345c-7.89,6.502-15.345,13.82-21.417,22.076C224.11,362.995,230,407.946,230,450v53
	c0,5.829-1.949,15.9,2.434,20.467C236.904,528.124,244.167,527,250,527h41h118h38c6.46,0,13.623,0.863,20-0.225
	c11.611-1.981,9-15.054,9-23.775v-72c0-25.53,2.289-51.417-5.89-76c-14.493-43.563-59.251-73.945-104.11-77.09
	C358.611,277.393,351.427,276.449,344,277.424z"/>
</svg>
